PathFileType	4	(X/Y/Z)	C:\Users\WrightLab\Desktop\Jo\P5V120.trc
DataRate	CameraRate	NumFrames	NumMarkers	Units	OrigDataRate	OrigDataStartFrame	OrigNumFrames
100.00	100.00	       15	19	mm	100.00	394	       630
Frame#	Time	Headset_Front			Headset_Back			Headset_Left			Headset_Right			Left_Shoulder			Right_Shoulder			Sternum			C7			Left Elbow			Right Elbow			Left Wrist			Right Wrist			Left ASIS			Right ASIS			S2			Left Knee			Right Knee			Left Ankle			Right Ankle			
		X1	Y1	Z1	X2	Y2	Z2	X3	Y3	Z3	X4	Y4	Z4	X5	Y5	Z5	X6	Y6	Z6	X7	Y7	Z7	X8	Y8	Z8	X9	Y9	Z9	X10	Y10	Z10	X11	Y11	Z11	X12	Y12	Z12	X13	Y13	Z13	X14	Y14	Z14	X15	Y15	Z15	X16	Y16	Z16	X17	Y17	Z17	X18	Y18	Z18	X19	Y19	Z19	

394	3.930	285.39151	1438.79932	-382.00388	379.69943	1722.20862	-281.22720	256.52374	1596.88818	-244.28162	406.96219	1524.87292	-407.16049	256.91431	1441.78186	-129.66995	643.99677	1490.30640	-245.44841	476.19211	1303.74219	-250.24127	481.20450	1540.81116	-81.79916	153.22755	1188.97473	-39.16171	828.24158	1286.19763	-168.10381	12.13168	1035.55566	-150.67455	784.27875	1105.99036	-318.04108	380.94629	906.67474	-176.68488	648.47113	969.48792	-237.68335	539.79340	1009.95380	50.79230	391.39047	486.30069	-80.69783	671.50348	511.65250	-211.94662	419.23151	118.46463	137.89301	673.01825	105.12265	-210.24127	
395	3.940	286.63309	1440.79175	-387.33569	380.14911	1724.61926	-289.09729	257.89719	1598.47034	-249.12704	408.08984	1527.00208	-412.70474	258.40533	1444.08447	-133.13913	645.17755	1490.15576	-252.74495	475.55380	1304.84314	-257.27905	482.68704	1541.36267	-87.46034	157.39705	1190.62097	-39.65640	828.37329	1284.85742	-175.74376	16.32170	1036.07764	-150.78902	782.61377	1104.52917	-325.50732	380.76483	907.35095	-183.44431	647.86304	969.49469	-245.57932	542.46930	1009.20673	42.15699	395.33859	485.75427	-89.40236	673.71936	513.62543	-215.78986	418.21155	122.54452	134.94930	673.45667	105.13787	-210.51976	
396	3.950	287.70172	1442.34375	-392.51245	381.41391	1726.52209	-294.24683	259.58752	1600.01160	-254.03831	409.30042	1528.83923	-417.95001	258.55371	1446.64404	-137.36432	646.30115	1489.94397	-259.12930	475.73032	1305.32935	-263.03210	485.32159	1542.23572	-93.36645	160.76350	1192.30005	-40.93596	828.32434	1283.72131	-184.53592	21.44121	1036.40723	-150.97997	781.83710	1102.97791	-333.08862	380.40637	907.75623	-190.34081	647.60693	969.63708	-252.89259	544.38306	1010.05945	36.84829	399.21680	485.06778	-98.20627	675.61938	515.00555	-219.62292	418.22318	126.83206	131.83275	674.43646	104.83195	-210.94893	
397	3.960	288.85907	1444.23499	-397.39145				261.03873	1602.01538	-259.07846	410.53836	1530.50330	-423.10699	259.98300	1449.02783	-141.39510	646.92883	1490.20325	-266.32520	475.27585	1306.28162	-270.07443	487.25162	1542.77783	-99.35036	164.95204	1194.11926	-41.74282	827.74408	1281.94397	-192.37015	26.24170	1036.77747	-150.44659	781.01062	1101.54407	-340.68341	380.00241	907.91266	-196.41458	647.22388	969.73895	-259.47714	546.56549	1009.31824	28.44837	403.62054	485.15894	-108.57257	678.11493	516.10413	-224.08997	417.55319	132.00571	127.62823	675.22223	104.63475	-211.57094	
398	3.970	289.83261	1446.22217	-402.00143				262.03085	1603.44434	-263.40060	411.45587	1531.99194	-428.49661	262.39713	1450.02112	-145.69046	647.47217	1490.12842	-273.69635	475.33743	1306.62378	-274.93814	489.47076	1543.38867	-105.04504	168.79619	1195.76331	-43.72747	827.51703	1281.54028	-199.77420	31.12177	1037.11816	-151.30157	778.98187	1100.52856	-348.41470	380.45685	907.67267	-201.82758	647.11963	970.36194	-266.74811	547.72504	1009.90900	20.09073	406.15097	485.53110	-119.67635	680.67279	517.24097	-227.95795	417.26239	138.28008	122.70623	676.04852	104.40324	-211.95738	
399	3.980	290.44751	1448.10864	-407.42496				267.11716	1603.92725	-268.70004	412.31296	1533.55579	-433.19693	262.58841	1452.34900	-149.31958	647.94696	1490.08545	-281.08844	475.19052	1307.50708	-281.45300	491.67877	1543.71179	-110.88353	173.05600	1197.45801	-44.11852	828.10504	1280.31738	-208.05809	36.01182	1037.64856	-151.50992	778.20325	1099.75708	-355.94678	380.02130	906.93744	-207.40886	646.99536	970.26215	-272.99051	548.90552	1008.81232	12.41205	404.00317	487.52975	-131.37263	682.77032	517.88800	-232.19214	417.22412	144.54716	116.83794	676.48816	104.45236	-212.42740	
400	3.990	290.91800	1449.58105	-412.88135				264.65921	1606.10303	-273.21597	412.55411	1535.65588	-439.12808	263.55374	1454.36987	-153.39900	648.58582	1489.57446	-287.96729	474.49005	1307.93335	-287.04306	493.28299	1544.12256	-116.56918	176.81026	1198.34656	-44.17204	828.40588	1278.83398	-215.96057	40.84759	1038.16919	-151.82597	776.23010	1098.75330	-363.43719	377.90912	909.28290	-216.62897	646.33459	970.70258	-279.84088	551.64899	1010.01617	6.32956	402.41098	488.94873	-144.08723	684.87036	518.52979	-235.74446	417.05676	151.71815	108.92313	677.11658	104.18610	-212.92305	
401	4.000	290.24435	1451.01233	-419.66324				265.02267	1607.42090	-277.52094	412.99335	1537.09827	-444.00055	264.54379	1455.88928	-157.03113	648.78406	1489.09216	-295.07532	474.19815	1308.45093	-293.21472	495.48889	1544.25769	-122.62267	180.20197	1200.21899	-44.98795	828.32355	1278.02966	-223.33723	45.84460	1038.17651	-152.35555	774.31702	1097.23364	-370.59235	375.57455	910.69513	-223.44183	646.45874	970.04126	-285.58746	552.83466	1009.75067	-1.29949	400.86795	489.98303	-157.13084	686.99579	518.79468	-239.09169	416.90231	158.29866	101.25385	677.23883	103.97005	-212.97160	
402	4.010	291.52640	1452.76746	-423.87125				269.85934	1607.69849	-282.89011	413.42487	1538.33289	-449.23743	266.19537	1456.84351	-160.61002	649.13470	1488.21094	-301.91568	472.87546	1308.48389	-299.01953	497.85272	1544.85950	-128.56003	184.88841	1200.97363	-46.16959	826.99750	1276.56079	-231.24174	51.02858	1038.46606	-152.49124	771.88702	1096.48682	-378.43329	377.18497	909.44330	-226.58954	646.72998	969.43658	-292.57755	553.19836	1009.26410	-8.43058	398.45511	490.07074	-171.27383	689.63135	518.66724	-242.36330	417.12601	165.46802	92.12110	677.12561	103.80446	-212.94713	
403	4.020	291.80609	1453.83813	-428.39722				270.92798	1608.01868	-287.44073	413.82101	1539.20496	-453.87808	266.85385	1458.51758	-164.19772	649.15765	1487.47107	-309.28769	472.13080	1308.52905	-304.41614	499.72461	1544.67371	-134.26608	188.27336	1201.89075	-46.86928	826.61737	1274.60950	-238.91125	55.93690	1038.23035	-153.13605	769.66400	1095.34570	-385.99969	376.49960	910.05042	-232.71109	646.70282	968.70520	-298.72061	554.04449	1009.02405	-15.17009	396.46729	488.85495	-185.01491	691.86902	518.32959	-246.15201	417.07239	172.86128	82.63235	676.93677	103.60664	-213.08801	
404	4.030	291.85345	1454.79907	-433.76172				267.67310	1609.11279	-291.25674	413.73651	1540.33350	-459.73483	267.40494	1459.54272	-167.38499	649.24872	1486.23071	-315.65295	471.61285	1308.25903	-309.79572	501.04123	1544.56970	-139.66403	192.02892	1202.87048	-47.96829	826.76044	1273.09167	-246.50513	61.06845	1038.35327	-153.15912	767.84875	1094.01245	-393.75479	374.76422	910.66583	-238.44226	646.08826	967.60858	-305.42328	554.39874	1009.14465	-19.43915	393.48715	487.79364	-199.09244	694.19965	518.02344	-249.59396	417.62894	180.40988	74.26826	676.89313	103.41200	-213.34686	
405	4.040	290.64526	1455.36365	-440.13730				267.97495	1609.37634	-295.62173	413.68915	1540.95386	-465.04114	268.02557	1460.49402	-171.24030	648.78003	1484.89429	-323.07675	470.15390	1307.80957	-315.14713	502.52399	1544.49402	-145.53198	195.65671	1203.96033	-49.45509	826.49432	1271.47437	-254.74040	65.78883	1038.15063	-153.90984	765.86932	1092.68713	-401.14600	373.77954	910.00494	-242.82089	646.28992	965.61890	-311.26788	556.14917	1009.94043	-22.67890	390.31213	486.74591	-213.29753	696.40649	517.38086	-252.76471	417.79416	188.41939	65.24260	676.66125	103.44279	-213.39864	
406	4.050	291.89392	1455.68823	-442.84241				267.75284	1609.42810	-299.61624	413.41870	1541.83533	-469.41901	269.09805	1461.26965	-174.46280	648.63953	1483.21606	-329.25891	468.86142	1307.61609	-319.47577	503.78693	1544.31848	-151.18275	199.00050	1204.32056	-50.39154	825.93475	1269.60938	-262.81485	69.84474	1038.12231	-154.03113	763.36292	1090.94617	-409.04196	375.00031	908.40869	-245.78941	645.73920	964.26337	-317.91962	556.28748	1008.95892	-28.65413	387.15436	486.32349	-226.93207	698.62122	516.14960	-256.02463	418.03918	195.78986	56.79280	676.58942	103.25361	-213.27640	
407	4.060	291.34717	1456.31409	-448.45050				265.56870	1609.44287	-309.55212	412.84033	1542.67786	-474.88837	269.84100	1461.75122	-177.89349	647.91376	1481.78247	-336.22015	467.31360	1307.36768	-324.25797	505.46869	1543.82385	-157.28151	203.36682	1204.50635	-51.39015	825.24255	1267.70959	-271.49976	74.17693	1037.29785	-154.64499	760.19696	1089.45544	-416.71411	373.33270	909.13617	-251.64374	645.61926	962.86823	-324.04877	556.04199	1008.50208	-34.52216	383.39771	486.60025	-239.81593	700.86298	515.17346	-259.41718	418.16904	202.81097	48.29311	676.38330	103.16505	-213.28917	
408	4.070	290.79922	1456.87097	-454.06238				265.79605	1609.24329	-313.22119	412.09589	1543.40222	-480.23251	270.33167	1461.90356	-180.46921	647.59662	1480.25208	-341.90598	465.74683	1306.54419	-328.60458	505.78519	1543.56543	-162.67014	205.65114	1205.39539	-52.79971	824.27795	1265.21167	-278.52185	77.79521	1037.06799	-155.07454	757.78546	1087.54236	-424.66736	372.68240	908.38885	-256.30719	644.81561	961.43219	-330.42401	556.46857	1008.04541	-40.24404	380.34042	487.17130	-251.10432	702.99530	514.22070	-262.40060	418.87750	209.43707	39.62997	676.33215	103.20633	-213.46315	
